<svg width="64" height="64" viewBox="0 0 64 64" fill="none" xmlns="http://www.w3.org/2000/svg">
<path d="M24.2132 62C16.9665 47.8298 16.4 41.2912 23.9317 30.3969C15.6343 26.4151 6.36525 32.1826 5.39952 39.4836C4.43379 46.7845 17.9497 57.7048 24.2132 62Z" fill="#232326"/>
<path d="M2 24.2129C16.1702 16.9663 22.7088 16.3998 33.6031 23.9315C37.5849 15.6341 31.8174 6.36507 24.5164 5.39934C17.2155 4.43361 6.29523 17.9495 2 24.2129Z" fill="#232326"/>
<path d="M39.7868 2C47.0335 16.1702 47.6 22.7088 40.0683 33.6031C48.3657 37.5849 57.6347 31.8174 58.6005 24.5164C59.5662 17.2155 46.0503 6.29522 39.7868 2Z" fill="#232326"/>
<path d="M62 39.7871C47.8298 47.0337 41.2912 47.6002 30.3969 40.0685C26.4151 48.3659 32.1826 57.6349 39.4836 58.6007C46.7845 59.5664 57.7048 46.0505 62 39.7871Z" fill="#232326"/>
<path fill-rule="evenodd" clip-rule="evenodd" d="M38.7964 0.873497C39.3119 0.42031 40.0691 0.374777 40.6352 0.762939C43.8197 2.94675 48.8503 6.81418 52.983 11.0884C55.0477 13.2238 56.9327 15.506 58.2464 17.7691C59.5435 20.0037 60.3926 22.4066 60.0875 24.7131C58.9857 33.043 48.6204 39.3709 39.4193 34.9554C39.0236 34.7655 38.7309 34.4118 38.6184 33.9876C38.5059 33.5633 38.5848 33.1111 38.8344 32.7501C42.5124 27.4301 44.0659 23.3848 43.9698 19.0634C43.872 14.662 42.0641 9.74735 38.4514 2.68298C38.1389 2.07191 38.281 1.32668 38.7964 0.873497ZM43.7595 6.82245C45.7593 11.3875 46.8863 15.2726 46.9691 18.9967C47.074 23.7156 45.5038 27.9898 42.3477 32.8914C49.2664 35.0321 56.3444 30.1333 57.1134 24.3197C57.2912 22.9758 56.813 21.2758 55.6518 19.2752C54.5071 17.3032 52.8027 15.2179 50.8263 13.1737C48.5991 10.8703 46.0828 8.67645 43.7595 6.82245ZM6.82246 20.2403C11.3876 18.2405 15.2726 17.1135 18.9967 17.0307C23.7156 16.9258 27.9898 18.496 32.8914 21.6521C35.0321 14.7334 30.1334 7.65539 24.3198 6.88639C22.9758 6.70863 21.2758 7.18679 19.2752 8.34804C17.3032 9.49273 15.2179 11.1971 13.1737 13.1736C10.8703 15.4007 8.67646 17.917 6.82246 20.2403ZM17.7692 5.75347C20.0038 4.45638 22.4066 3.6072 24.7132 3.9123C33.0431 5.01413 39.371 15.3794 34.9555 24.5805C34.7656 24.9762 34.4119 25.2689 33.9876 25.3814C33.5634 25.4939 33.1111 25.415 32.7501 25.1654C27.4302 21.4875 23.3848 19.9339 19.0634 20.03C14.662 20.1278 9.74735 21.9357 2.68298 25.5484C2.07191 25.8609 1.32668 25.7188 0.873496 25.2034C0.420309 24.6879 0.374778 23.9307 0.76294 23.3646C2.94675 20.1801 6.81419 15.1495 11.0884 11.0168C13.2238 8.95213 15.506 7.06712 17.7692 5.75347ZM21.6523 31.1086C14.7336 28.968 7.65557 33.8667 6.88658 39.6803C6.70881 41.0242 7.18697 42.7242 8.34823 44.7248C9.49292 46.6969 11.1973 48.7821 13.1738 50.8263C15.4009 53.1297 17.9172 55.3235 20.2405 57.1776C18.2407 52.6125 17.1137 48.7275 17.0309 45.0033C16.926 40.2844 18.4962 36.0102 21.6523 31.1086ZM3.91248 39.2869C5.01432 30.957 15.3796 24.6291 24.5807 29.0446C24.9764 29.2345 25.2691 29.5882 25.3816 30.0124C25.4941 30.4367 25.4152 30.8889 25.1656 31.2499C21.4877 36.5699 19.9341 40.6153 20.0302 44.9367C20.128 49.338 21.9359 54.2527 25.5487 61.317C25.8612 61.9281 25.719 62.6733 25.2036 63.1265C24.6882 63.5797 23.9309 63.6252 23.3648 63.2371C20.1803 61.0533 15.1497 57.1858 11.017 52.9116C8.95232 50.7762 7.06731 48.494 5.75365 46.2309C4.45656 43.9963 3.60739 41.5934 3.91248 39.2869ZM63.1265 38.7966C63.5797 39.3121 63.6252 40.0694 63.2371 40.6354C61.0533 43.8199 57.1858 48.8505 52.9116 52.9832C50.7762 55.0479 48.494 56.9329 46.2309 58.2465C43.9963 59.5436 41.5934 60.3928 39.2869 60.0877C30.957 58.9859 24.6291 48.6206 29.0446 39.4195C29.2344 39.0238 29.5881 38.7311 30.0124 38.6186C30.4366 38.5061 30.8889 38.585 31.2499 38.8346C36.5699 42.5125 40.6152 44.0661 44.9366 43.97C49.338 43.8722 54.2527 42.0643 61.317 38.4516C61.9281 38.1391 62.6733 38.2812 63.1265 38.7966ZM31.1086 42.3479C28.9679 49.2666 33.8666 56.3446 39.6803 57.1136C41.0242 57.2914 42.7242 56.8132 44.7248 55.652C46.6968 54.5073 48.7821 52.8029 50.8263 50.8265C53.1297 48.5993 55.3235 46.083 57.1775 43.7597C52.6124 45.7595 48.7274 46.8865 45.0033 46.9693C40.2844 47.0742 36.0102 45.504 31.1086 42.3479Z" fill="url(#paint0_linear_2127_210)"/>
<defs>
<linearGradient id="paint0_linear_2127_210" x1="-1.89637" y1="-3.01123" x2="73.1876" y2="34.4029" gradientUnits="userSpaceOnUse">
<stop stop-color="#75FFFF"/>
<stop offset="0.494792" stop-color="#63BBFF"/>
<stop offset="1" stop-color="#75FFFF"/>
</linearGradient>
</defs>
</svg>
